<svg width="357.000000" height="233.700012" viewBox="0 0 357 233.7" fill="none" xmlns="http://www.w3.org/2000/svg" xmlns:xlink="http://www.w3.org/1999/xlink">
	<desc>
			Created with Pixso.
	</desc>
	<defs>
		<clipPath id="clip1_191">
			<rect id="Frame" width="357.000000" height="233.699997" fill="white" fill-opacity="0"/>
		</clipPath>
	</defs>
	<rect id="Frame" width="357.000000" height="233.699997" fill="#FFFFFF" fill-opacity="0"/>
	<g clip-path="url(#clip1_191)">
		<path id="Vector" d="M337.3 225.4L24.1 225.4C19.9 225.4 16.5 222 16.5 217.8L16.5 7.59C16.5 3.4 19.9 0 24.1 0L337.3 0C341.5 0 344.9 3.4 344.9 7.59L344.9 217.7C345 222 341.5 225.4 337.3 225.4Z" fill="#00D5E4" fill-opacity="1.000000" fill-rule="nonzero"/>
		<path id="Vector" d="M326.2 217.8L35.2 217.8C31 217.8 27.6 214.4 27.6 210.2L27.6 15.3C27.6 11.1 31 7.7 35.2 7.7L326.2 7.7C330.4 7.7 333.8 11.1 333.8 15.3L333.8 210.2C333.9 214.3 330.4 217.8 326.2 217.8Z" fill="#065090" fill-opacity="1.000000" fill-rule="nonzero"/>
		<path id="Vector" d="M75.4 28.9L115.6 28.9L115.6 33.4L75.4 33.4L75.4 28.9Z" fill="#FCFDFD" fill-opacity="1.000000" fill-rule="evenodd"/>
		<path id="Vector" d="M75.4 38.9L101 38.9L101 43.4L75.4 43.4L75.4 38.9Z" fill="#FCFDFD" fill-opacity="1.000000" fill-rule="evenodd"/>
		<path id="Vector" d="M115.4 38.9L218.5 38.9L218.5 43.4L115.4 43.4L115.4 38.9Z" fill="#FCFDFD" fill-opacity="1.000000" fill-rule="evenodd"/>
		<path id="Vector" d="M228.5 38.9L282.5 38.9L282.5 43.4L228.5 43.4L228.5 38.9Z" fill="#FF6452" fill-opacity="1.000000" fill-rule="evenodd"/>
		<path id="Vector" d="M85.4 48.9L150.5 48.9L150.5 53.4L85.4 53.4L85.4 48.9Z" fill="#00D050" fill-opacity="1.000000" fill-rule="evenodd"/>
		<path id="Vector" d="M170.5 48.9L267.5 48.9L267.5 53.4L170.5 53.4L170.5 48.9Z" fill="#FCFDFD" fill-opacity="1.000000" fill-rule="evenodd"/>
		<path id="Vector" d="M75.4 58.9L167 58.9L167 63.4L75.4 63.4L75.4 58.9Z" fill="#FF6452" fill-opacity="1.000000" fill-rule="evenodd"/>
		<path id="Vector" d="M175.4 58.9L240.5 58.9L240.5 63.4L175.4 63.4L175.4 58.9Z" fill="#00D5E4" fill-opacity="1.000000" fill-rule="evenodd"/>
		<path id="Vector" d="M85.4 68.9L150.5 68.9L150.5 73.4L85.4 73.4L85.4 68.9Z" fill="#FCFDFD" fill-opacity="1.000000" fill-rule="evenodd"/>
		<path id="Vector" d="M75.4 78.9L170.5 78.9L170.5 83.4L75.4 83.4L75.4 78.9Z" fill="#FCFDFD" fill-opacity="1.000000" fill-rule="evenodd"/>
		<path id="Vector" d="M75.4 88.9L140.5 88.9L140.5 93.4L75.4 93.4L75.4 88.9Z" fill="#FCFDFD" fill-opacity="1.000000" fill-rule="evenodd"/>
		<path id="Vector" d="M95.4 98.9L204 98.9L204 103.4L95.4 103.4L95.4 98.9Z" fill="#FF6452" fill-opacity="1.000000" fill-rule="evenodd"/>
		<path id="Vector" d="M215.4 98.9L250.5 98.9L250.5 103.4L215.4 103.4L215.4 98.9Z" fill="#FCFDFD" fill-opacity="1.000000" fill-rule="evenodd"/>
		<path id="Vector" d="M265.4 98.9L300.5 98.9L300.5 103.4L265.4 103.4L265.4 98.9Z" fill="#FCFDFD" fill-opacity="1.000000" fill-rule="evenodd"/>
		<path id="Vector" d="M105.4 108.9L149.7 108.9L149.7 113.4L105.4 113.4L105.4 108.9Z" fill="#FCFDFD" fill-opacity="1.000000" fill-rule="evenodd"/>
		<path id="Vector" d="M105.4 118.9L164.5 118.9L164.5 123.4L105.4 123.4L105.4 118.9Z" fill="#FF6452" fill-opacity="1.000000" fill-rule="evenodd"/>
		<path id="Vector" d="M185.4 118.9L250.5 118.9L250.5 123.4L185.4 123.4L185.4 118.9Z" fill="#FCFDFD" fill-opacity="1.000000" fill-rule="evenodd"/>
		<path id="Vector" d="M265.4 118.9L292.5 118.9L292.5 123.4L265.4 123.4L265.4 118.9Z" fill="#FF6452" fill-opacity="1.000000" fill-rule="evenodd"/>
		<path id="Vector" d="M75.4 128.89L115.4 128.89L115.4 133.39L75.4 133.39L75.4 128.89Z" fill="#FCFDFD" fill-opacity="1.000000" fill-rule="evenodd"/>
		<path id="Vector" d="M75.4 138.89L140.5 138.89L140.5 143.39L75.4 143.39L75.4 138.89Z" fill="#FCFDFD" fill-opacity="1.000000" fill-rule="evenodd"/>
		<path id="Vector" d="M105.4 148.89L223.5 148.89L223.5 153.39L105.4 153.39L105.4 148.89Z" fill="#FCFDFD" fill-opacity="1.000000" fill-rule="evenodd"/>
		<path id="Vector" d="M235.4 148.89L308.5 148.89L308.5 153.39L235.4 153.39L235.4 148.89Z" fill="#00D5E4" fill-opacity="1.000000" fill-rule="evenodd"/>
		<path id="Vector" d="M105.4 158.89L145.5 158.89L145.5 163.39L105.4 163.39L105.4 158.89Z" fill="#FCFDFD" fill-opacity="1.000000" fill-rule="evenodd"/>
		<path id="Vector" d="M155.39 158.89L195.5 158.89L195.5 163.39L155.39 163.39L155.39 158.89Z" fill="#00D050" fill-opacity="1.000000" fill-rule="evenodd"/>
		<path id="Vector" d="M205.4 158.89L245.5 158.89L245.5 163.39L205.4 163.39L205.4 158.89Z" fill="#FCFDFD" fill-opacity="1.000000" fill-rule="evenodd"/>
		<path id="Vector" d="M75.4 168.9L140.5 168.9L140.5 173.4L75.4 173.4L75.4 168.9Z" fill="#FCFDFD" fill-opacity="1.000000" fill-rule="evenodd"/>
		<path id="Vector" d="M95.4 178.9L160.5 178.9L160.5 183.4L95.4 183.4L95.4 178.9Z" fill="#00D050" fill-opacity="1.000000" fill-rule="evenodd"/>
		<path id="Vector" d="M172.9 178.9L238 178.9L238 183.4L172.9 183.4L172.9 178.9Z" fill="#00D050" fill-opacity="1.000000" fill-rule="evenodd"/>
		<path id="Vector" d="M171.5 198.9L208 198.9L208 203.4L171.5 203.4L171.5 198.9Z" fill="#FCFDFD" fill-opacity="1.000000" fill-rule="evenodd"/>
		<path id="Vector" d="M95.4 188.9L192 188.9L192 193.4L95.4 193.4L95.4 188.9Z" fill="#FCFDFD" fill-opacity="1.000000" fill-rule="evenodd"/>
		<path id="Vector" d="M45.8 28.9L50.3 28.9L50.3 33.4L45.8 33.4L45.8 28.9Z" fill="#5E94C1" fill-opacity="1.000000" fill-rule="evenodd"/>
		<path id="Vector" d="M45.8 38.9L50.3 38.9L50.3 43.4L45.8 43.4L45.8 38.9Z" fill="#5E94C1" fill-opacity="1.000000" fill-rule="evenodd"/>
		<path id="Vector" d="M45.8 48.9L50.3 48.9L50.3 53.4L45.8 53.4L45.8 48.9Z" fill="#5E94C1" fill-opacity="1.000000" fill-rule="evenodd"/>
		<path id="Vector" d="M45.8 58.9L50.3 58.9L50.3 63.4L45.8 63.4L45.8 58.9Z" fill="#5E94C1" fill-opacity="1.000000" fill-rule="evenodd"/>
		<path id="Vector" d="M45.8 68.9L50.3 68.9L50.3 73.4L45.8 73.4L45.8 68.9Z" fill="#5E94C1" fill-opacity="1.000000" fill-rule="evenodd"/>
		<path id="Vector" d="M45.8 78.9L50.3 78.9L50.3 83.4L45.8 83.4L45.8 78.9Z" fill="#5E94C1" fill-opacity="1.000000" fill-rule="evenodd"/>
		<path id="Vector" d="M45.8 88.9L50.3 88.9L50.3 93.4L45.8 93.4L45.8 88.9Z" fill="#5E94C1" fill-opacity="1.000000" fill-rule="evenodd"/>
		<path id="Vector" d="M45.8 98.9L50.3 98.9L50.3 103.4L45.8 103.4L45.8 98.9Z" fill="#5E94C1" fill-opacity="1.000000" fill-rule="evenodd"/>
		<path id="Vector" d="M45.8 108.9L50.3 108.9L50.3 113.4L45.8 113.4L45.8 108.9Z" fill="#5E94C1" fill-opacity="1.000000" fill-rule="evenodd"/>
		<path id="Vector" d="M45.8 118.9L50.3 118.9L50.3 123.4L45.8 123.4L45.8 118.9Z" fill="#5E94C1" fill-opacity="1.000000" fill-rule="evenodd"/>
		<path id="Vector" d="M45.8 128.89L50.3 128.89L50.3 133.39L45.8 133.39L45.8 128.89Z" fill="#5E94C1" fill-opacity="1.000000" fill-rule="evenodd"/>
		<path id="Vector" d="M45.8 138.89L50.3 138.89L50.3 143.39L45.8 143.39L45.8 138.89Z" fill="#5E94C1" fill-opacity="1.000000" fill-rule="evenodd"/>
		<path id="Vector" d="M45.8 148.89L50.3 148.89L50.3 153.39L45.8 153.39L45.8 148.89Z" fill="#5E94C1" fill-opacity="1.000000" fill-rule="evenodd"/>
		<path id="Vector" d="M45.8 158.89L50.3 158.89L50.3 163.39L45.8 163.39L45.8 158.89Z" fill="#5E94C1" fill-opacity="1.000000" fill-rule="evenodd"/>
		<path id="Vector" d="M45.8 168.9L50.3 168.9L50.3 173.4L45.8 173.4L45.8 168.9Z" fill="#5E94C1" fill-opacity="1.000000" fill-rule="evenodd"/>
		<path id="Vector" d="M45.8 178.9L50.3 178.9L50.3 183.4L45.8 183.4L45.8 178.9Z" fill="#5E94C1" fill-opacity="1.000000" fill-rule="evenodd"/>
		<path id="Vector" d="M45.8 188.9L50.3 188.9L50.3 193.4L45.8 193.4L45.8 188.9Z" fill="#5E94C1" fill-opacity="1.000000" fill-rule="evenodd"/>
		<path id="Vector" d="M45.8 198.9L50.3 198.9L50.3 203.4L45.8 203.4L45.8 198.9Z" fill="#5E94C1" fill-opacity="1.000000" fill-rule="evenodd"/>
		<path id="Vector" d="M95.4 198.9L143.7 198.9L143.7 203.4L95.4 203.4L95.4 198.9Z" fill="#FCFDFD" fill-opacity="1.000000" fill-rule="evenodd"/>
		<path id="Vector" d="M284.7 203.3L265.7 195.2L265.7 191.9L284.7 183.8L284.7 187.3L269.6 193.5L284.7 199.7L284.7 203.3Z" fill="#FCFDFD" fill-opacity="1.000000" fill-rule="nonzero"/>
		<path id="Vector" d="M298.1 179L289.79 207.7L287 207.7L295.29 179L298.1 179Z" fill="#FCFDFD" fill-opacity="1.000000" fill-rule="nonzero"/>
		<path id="Vector" d="M319.29 195.2L300.29 203.3L300.29 199.8L315.4 193.6L300.29 187.4L300.29 183.9L319.29 192L319.29 195.2Z" fill="#FCFDFD" fill-opacity="1.000000" fill-rule="nonzero"/>
		<path id="Vector" d="M337 233.7L20 233.7C9 233.7 0 224.7 0 213.7L357 213.7C357 224.8 348 233.7 337 233.7Z" fill="#00BBD3" fill-opacity="1.000000" fill-rule="nonzero"/>
		<g opacity="0.100000">
			<g opacity="0.100000">
				<g opacity="0.100000">
					<path id="Vector" d="M129.39 217.8L204 7.59L175.7 7.59L101.1 217.8L129.39 217.8Z" fill="#FFFFFF" fill-opacity="1.000000" fill-rule="nonzero"/>
				</g>
			</g>
			<g opacity="0.100000">
				<g opacity="0.100000">
					<path id="Vector" d="M35.3 217.8L48.6 217.8L123.2 7.59L35.3 7.59C31.1 7.59 27.7 11 27.7 15.2L27.7 210.1C27.6 214.3 31.1 217.8 35.3 217.8Z" fill="#FFFFFF" fill-opacity="1.000000" fill-rule="nonzero"/>
				</g>
			</g>
			<g opacity="0.100000">
				<g opacity="0.100000">
					<path id="Vector" d="M287.6 217.8L326.29 217.8C330.5 217.8 333.9 214.4 333.9 210.2L333.9 87.4L287.6 217.8Z" fill="#FFFFFF" fill-opacity="1.000000" fill-rule="nonzero"/>
				</g>
			</g>
		</g>
		<g opacity="0.100000">
			<g opacity="0.100000">
				<g opacity="0.100000">
					<path id="Vector" d="M184.3 217.8L236.2 217.8L310.79 7.59L258.9 7.59L184.3 217.8Z" fill="#FFFFFF" fill-opacity="1.000000" fill-rule="nonzero"/>
				</g>
			</g>
		</g>
		<path id="Vector" d="M354.3 223.7C356 220.8 357 217.3 357 213.7L0 213.7C0 217.3 1 220.8 2.7 223.7L354.3 223.7Z" fill="#15D7E2" fill-opacity="1.000000" fill-rule="nonzero"/>
	</g>
</svg>
