<svg width="50.000000" height="50.000000" viewBox="0 0 50 50" fill="none" xmlns="http://www.w3.org/2000/svg" xmlns:xlink="http://www.w3.org/1999/xlink">
	<desc>
			Created with Pixso.
	</desc>
	<defs>
		<clipPath id="clip1_96">
			<rect id="project" width="50.000000" height="50.000000" fill="white" fill-opacity="0"/>
		</clipPath>
	</defs>
	<rect id="project" width="50.000000" height="50.000000" fill="#FFFFFF" fill-opacity="0"/>
	<g clip-path="url(#clip1_96)">
		<path id="Vector" d="M49.16 0L11.66 0C11.2 0 10.83 0.37 10.83 0.83L10.83 13.33L12.5 13.33L12.5 1.66L48.33 1.66L48.33 47.49C48.34 47.93 48 48.3 47.56 48.33C47.49 48.33 47.42 48.32 47.35 48.32C47.2 48.32 47.05 48.31 46.91 48.3C46.89 48.3 46.88 48.3 46.87 48.29C44.15 48 42 45.85 41.7 43.13C41.7 43.11 41.69 43.1 41.69 43.09C41.67 42.89 41.66 42.69 41.66 42.49L41.66 40.83C41.66 40.37 41.29 39.99 40.83 39.99L12.5 39.99L12.5 25L10.83 25L10.83 39.99L4.16 39.99C3.7 39.99 3.33 40.37 3.33 40.83L3.33 42.49C3.33 46.64 6.69 49.99 10.83 49.99L47.58 49.99C48.93 49.96 50.01 48.85 49.99 47.49L49.99 0.83C49.99 0.37 49.62 0 49.16 0ZM10.83 48.33C7.61 48.32 5 45.72 5 42.49L5 41.66L40 41.66L40 42.49C40 42.77 40.01 43.04 40.04 43.32C40.05 43.39 40.06 43.46 40.07 43.53C40.1 43.73 40.14 43.93 40.18 44.13C40.19 44.2 40.21 44.27 40.23 44.34C40.28 44.54 40.34 44.74 40.41 44.93C40.43 44.99 40.45 45.04 40.47 45.1C40.54 45.3 40.63 45.51 40.72 45.71C40.74 45.75 40.76 45.79 40.78 45.83C40.88 46.04 41 46.24 41.12 46.44C41.14 46.47 41.16 46.5 41.17 46.53C41.31 46.74 41.46 46.94 41.61 47.14L41.64 47.18C41.82 47.41 42.02 47.62 42.22 47.83C42.4 48.01 42.59 48.18 42.78 48.33L10.83 48.33Z" fill="#FFFFFF" fill-opacity="1.000000" fill-rule="nonzero"/>
		<path id="Vector" d="M27.49 23.33C27.72 23.33 27.93 23.24 28.08 23.08L31.42 19.75C31.74 19.43 31.74 18.9 31.42 18.57L28.08 15.24C27.93 15.08 27.72 15 27.49 15L4.16 15C1.86 15 0 16.86 0 19.16C0 21.46 1.86 23.33 4.16 23.33L27.49 23.33ZM27.28 16.79L29.65 19.16L27.28 21.53L26.69 19.16L27.28 16.79ZM6.66 16.66L25.59 16.66L25.18 18.33L8.33 18.33L8.33 20L25.18 20L25.59 21.66L6.66 21.66L6.66 16.66ZM1.66 19.16C1.66 17.78 2.78 16.66 4.16 16.66L5 16.66L5 21.66L4.16 21.66C2.78 21.66 1.66 20.54 1.66 19.16Z" fill="#FFFFFF" fill-opacity="1.000000" fill-rule="nonzero"/>
		<path id="Vector" d="M19.16 35.83L44.16 35.83C44.62 35.83 44.99 35.46 44.99 34.99L44.99 10C44.99 9.53 44.62 9.16 44.16 9.16C43.94 9.16 43.73 9.25 43.57 9.41L18.57 34.41C18.25 34.73 18.25 35.26 18.57 35.58C18.73 35.74 18.94 35.83 19.16 35.83ZM43.33 12.01L43.33 14.16L41.66 14.16L41.66 15.83L43.33 15.83L43.33 17.5L41.66 17.5L41.66 19.16L43.33 19.16L43.33 20.83L41.66 20.83L41.66 22.5L43.33 22.5L43.33 24.16L41.66 24.16L41.66 25.83L43.33 25.83L43.33 27.5L41.66 27.5L41.66 29.16L43.33 29.16L43.33 30.83L41.66 30.83L41.66 32.49L43.33 32.49L43.33 34.16L41.66 34.16L41.66 32.49L39.99 32.49L39.99 34.16L38.33 34.16L38.33 32.49L36.66 32.49L36.66 34.16L35 34.16L35 32.49L33.33 32.49L33.33 34.16L31.66 34.16L31.66 32.49L30 32.49L30 34.16L28.33 34.16L28.33 32.49L26.66 32.49L26.66 34.16L25 34.16L25 32.49L23.33 32.49L23.33 34.16L21.17 34.16L43.33 12.01Z" fill="#FFFFFF" fill-opacity="1.000000" fill-rule="nonzero"/>
		<path id="Vector" d="M31.23 30.83L39.16 30.83C39.62 30.83 40 30.46 40 29.99L40 22.07C39.99 21.61 39.62 21.23 39.16 21.23C38.94 21.23 38.73 21.32 38.57 21.48L30.64 29.41C30.32 29.73 30.32 30.26 30.64 30.58C30.8 30.74 31.01 30.83 31.23 30.83ZM38.33 24.08L38.33 29.16L33.25 29.16L38.33 24.08Z" fill="#FFFFFF" fill-opacity="1.000000" fill-rule="nonzero"/>
		<path id="Vector" d="M21.66 5L38.33 5L38.33 6.66L21.66 6.66L21.66 5Z" fill="#FFFFFF" fill-opacity="1.000000" fill-rule="evenodd"/>
		<path id="Vector" d="M19.16 8.33L40.83 8.33L40.83 9.99L19.16 9.99L19.16 8.33Z" fill="#FFFFFF" fill-opacity="1.000000" fill-rule="evenodd"/>
		<path id="Vector" d="M14.16 25.83L19.16 25.83L19.16 27.49L14.16 27.49L14.16 25.83Z" fill="#FFFFFF" fill-opacity="1.000000" fill-rule="evenodd"/>
		<path id="Vector" d="M14.16 29.16L17.49 29.16L17.49 30.83L14.16 30.83L14.16 29.16Z" fill="#FFFFFF" fill-opacity="1.000000" fill-rule="evenodd"/>
	</g>
</svg>
