<svg width="43.750000" height="40.000000" viewBox="0 0 43.75 40" fill="none" xmlns="http://www.w3.org/2000/svg" xmlns:xlink="http://www.w3.org/1999/xlink">
	<desc>
			Created with Pixso.
	</desc>
	<defs>
		<clipPath id="clip1_173">
			<rect id="vk-social-network-logo" width="43.750000" height="40.000000" fill="white" fill-opacity="0"/>
		</clipPath>
	</defs>
	<rect id="vk-social-network-logo" width="43.750000" height="40.000000" fill="#FFFFFF" fill-opacity="0"/>
	<g clip-path="url(#clip1_173)">
		<path id="Vector" d="M43.51 29.2C43.46 29.09 43.41 29 43.36 28.93C42.61 27.68 41.16 26.15 39.01 24.33L38.97 24.29L38.95 24.27L38.92 24.25L38.9 24.25C37.93 23.4 37.31 22.83 37.06 22.54C36.58 21.99 36.48 21.42 36.74 20.85C36.92 20.42 37.6 19.51 38.79 18.13C39.41 17.39 39.9 16.8 40.27 16.36C42.89 13.16 44.03 11.12 43.68 10.23L43.55 10.02C43.46 9.9 43.22 9.79 42.84 9.68C42.46 9.58 41.98 9.56 41.38 9.63L34.82 9.67C34.72 9.64 34.57 9.64 34.37 9.68C34.17 9.72 34.07 9.74 34.07 9.74L33.96 9.8L33.87 9.86C33.79 9.9 33.71 9.97 33.62 10.08C33.53 10.18 33.45 10.3 33.39 10.44C32.67 12.12 31.86 13.68 30.95 15.13C30.39 15.99 29.87 16.73 29.4 17.37C28.93 18 28.54 18.46 28.22 18.76C27.9 19.06 27.61 19.3 27.35 19.48C27.09 19.66 26.9 19.74 26.76 19.71C26.62 19.68 26.49 19.65 26.37 19.63C26.16 19.5 25.99 19.33 25.86 19.12C25.73 18.9 25.64 18.63 25.6 18.3C25.55 17.98 25.53 17.7 25.52 17.46C25.51 17.22 25.51 16.89 25.53 16.46C25.55 16.03 25.55 15.74 25.55 15.58C25.55 15.06 25.56 14.48 25.59 13.87C25.61 13.25 25.63 12.76 25.64 12.4C25.66 12.04 25.67 11.66 25.67 11.25C25.67 10.85 25.64 10.53 25.59 10.31C25.53 10.08 25.45 9.85 25.35 9.64C25.24 9.42 25.09 9.26 24.88 9.14C24.68 9.02 24.42 8.93 24.12 8.86C23.31 8.69 22.29 8.6 21.04 8.59C18.22 8.56 16.4 8.73 15.6 9.09C15.28 9.24 14.99 9.45 14.73 9.71C14.46 10.02 14.42 10.18 14.62 10.21C15.53 10.34 16.18 10.64 16.56 11.11L16.69 11.36C16.8 11.54 16.9 11.86 17.01 12.32C17.12 12.77 17.19 13.28 17.22 13.84C17.29 14.85 17.29 15.72 17.22 16.44C17.14 17.16 17.07 17.72 17 18.13C16.93 18.53 16.83 18.85 16.69 19.1C16.56 19.35 16.46 19.51 16.42 19.56C16.37 19.62 16.33 19.65 16.3 19.67C16.11 19.74 15.9 19.77 15.69 19.77C15.48 19.77 15.22 19.67 14.92 19.48C14.61 19.28 14.3 19.02 13.97 18.68C13.64 18.34 13.28 17.86 12.87 17.25C12.46 16.64 12.03 15.92 11.59 15.08L11.23 14.48C11 14.09 10.69 13.53 10.29 12.78C9.9 12.04 9.55 11.32 9.24 10.63C9.12 10.34 8.94 10.11 8.7 9.96L8.58 9.9C8.51 9.84 8.39 9.78 8.22 9.72C8.05 9.66 7.88 9.61 7.69 9.59L1.45 9.63C0.82 9.63 0.38 9.76 0.15 10.02L0.06 10.15C0.02 10.22 0 10.33 0 10.48C0 10.63 0.04 10.82 0.13 11.04C1.04 13 2.03 14.89 3.1 16.71C4.17 18.53 5.11 19.99 5.89 21.1C6.68 22.21 7.49 23.26 8.31 24.25C9.13 25.23 9.67 25.87 9.94 26.14C10.2 26.42 10.41 26.63 10.56 26.77L11.13 27.27C11.5 27.6 12.03 28 12.74 28.47C13.45 28.93 14.23 29.39 15.09 29.84C15.94 30.29 16.94 30.66 18.08 30.94C19.22 31.23 20.33 31.34 21.41 31.29L24.03 31.29C24.56 31.25 24.96 31.09 25.23 30.83L25.32 30.72C25.39 30.64 25.44 30.51 25.5 30.34C25.55 30.17 25.58 29.98 25.58 29.77C25.56 29.17 25.61 28.63 25.72 28.15C25.84 27.67 25.97 27.31 26.11 27.07C26.26 26.83 26.42 26.62 26.6 26.46C26.78 26.29 26.91 26.19 26.99 26.15C27.06 26.12 27.12 26.1 27.17 26.08C27.53 25.97 27.96 26.08 28.46 26.4C28.95 26.73 29.41 27.13 29.85 27.61C30.28 28.09 30.8 28.63 31.41 29.23C32.01 29.82 32.55 30.27 33 30.56L33.46 30.81C33.76 30.98 34.16 31.13 34.64 31.27C35.13 31.41 35.55 31.44 35.92 31.37L41.75 31.29C42.33 31.29 42.77 31.2 43.09 31.03C43.41 30.85 43.6 30.66 43.66 30.46C43.72 30.25 43.73 30.01 43.67 29.75C43.62 29.48 43.57 29.3 43.51 29.2Z" fill="#FFFFFF" fill-opacity="1.000000" fill-rule="nonzero"/>
	</g>
</svg>
