<svg width="83.625000" height="36.750000" viewBox="0 0 83.625 36.75" fill="none" xmlns="http://www.w3.org/2000/svg" xmlns:xlink="http://www.w3.org/1999/xlink">
	<desc>
			Created with Pixso.
	</desc>
	<defs/>
	<path id="WD" d="M72.89 0.63Q69.7 0 66.09 0Q64.07 0 61.96 0.15Q59.85 0.3 57.87 0.55Q55.89 0.79 54.16 1.12Q52.42 1.45 51.18 1.82L51.18 33.98Q52.42 34.35 54.16 34.68Q55.89 35.01 57.87 35.26Q59.85 35.5 61.96 35.66Q64.07 35.81 66.09 35.81Q69.7 35.81 72.89 35.17Q76.07 34.54 78.46 33.42Q80.85 32.29 82.24 30.71Q83.21 29.6 83.5 28.33Q83.62 27.8 83.62 27.23L83.62 8.57Q83.62 8.01 83.5 7.47Q83.21 6.2 82.24 5.09Q80.85 3.51 78.46 2.39Q76.07 1.26 72.89 0.63ZM8.71 2.42Q8.76 1.33 8.9 0.28Q6.84 0.39 5.2 0.57Q3.56 0.75 2.4 0.92Q1.24 1.1 0.62 1.21Q0 1.33 4.1e-5 1.31L0 1.31L0 7.26Q0.77 7 1.55 6.85Q2.34 6.7 3.18 6.51Q3.18 11.55 4.12 15.85Q5.06 20.15 6.75 23.88Q8.43 27.6 10.8 30.79Q11.81 32.15 12.91 33.44Q14.39 35.16 16.03 36.75Q18.09 34.75 19.88 32.27Q21.67 29.78 23.2 26.67Q24.67 29.78 26.44 32.25Q28.21 34.71 30.28 36.7Q31.61 35.41 32.85 34.04Q34.28 32.45 35.57 30.75Q37.99 27.56 39.72 23.83Q41.46 20.1 42.43 15.8Q43.4 11.5 43.4 6.46Q44.1 6.65 44.84 6.8Q45.58 6.96 46.35 7.21L46.35 1.31Q45.28 1.07 43.92 0.84Q42.72 0.65 41.09 0.46Q39.46 0.28 37.4 0.18Q37.68 2.5 37.68 5.01Q37.68 8.01 37.24 11.13Q36.86 13.74 36.15 16.24Q36.01 16.73 35.85 17.22Q34.92 20.2 33.49 22.91Q32.06 25.61 30.09 27.75Q29.66 27.28 29.29 26.78Q28.47 25.69 27.89 24.41Q27.6 23.77 27.36 23.13Q26.88 21.86 26.57 20.54Q26.21 19 26.03 17.43Q25.98 16.97 25.94 16.5Q25.78 14.46 25.78 12.6L20.62 12.6Q20.6 14.46 20.43 16.52Q20.4 16.94 20.35 17.36Q20.17 18.99 19.79 20.61Q19.35 22.45 18.6 24.16Q18.53 24.33 18.45 24.5Q17.8 25.93 16.83 27.1Q16.54 27.46 16.21 27.79Q14.95 26.55 13.91 24.93Q12.86 23.32 12.03 21.44Q11.2 19.57 10.57 17.49Q9.93 15.42 9.51 13.26Q9.09 11.1 8.88 8.94Q8.67 6.77 8.67 4.68Q8.67 3.51 8.71 2.42ZM62.48 5.42Q64.05 5.29 66.18 5.29Q68.81 5.29 70.91 5.71Q73 6.14 74.44 6.84Q75.89 7.54 76.66 8.47Q77.33 9.27 77.42 10.13Q77.43 10.26 77.43 10.4L77.43 25.4Q77.43 25.54 77.42 25.68Q77.33 26.54 76.66 27.33Q75.89 28.26 74.44 28.96Q73 29.67 70.91 30.09Q68.81 30.51 66.18 30.51Q64.05 30.51 62.48 30.38Q60.91 30.25 59.78 30.05Q58.66 29.85 57.92 29.64Q57.18 29.43 56.71 29.25L56.71 6.56Q57.18 6.39 57.92 6.17Q58.66 5.95 59.78 5.75Q60.91 5.55 62.48 5.42Z" fill="#34547A" fill-opacity="1.000000" fill-rule="evenodd"/>
</svg>
